<?xml version="1.0" encoding="UTF-8"?><svg width="512" height="512" version="1.1" viewBox="0 0 512 512" xmlns="http://www.w3.org/2000/svg" xmlns:xlink="http://www.w3.org/1999/xlink"><!--Generated by IJSVG (https://github.com/iconjar/IJSVG)--><g transform="scale(20.48)"><path fill="#000" d="M14.283,16.235c-0.197,-0.132 -0.461,-0.106 -0.631,0.062l-0.485,0.485c-0.582,-0.219 -1.969,-0.817 -3.05,-1.899c-1.081,-1.082 -1.681,-2.469 -1.899,-3.05l0.486,-0.486c0.168,-0.169 0.194,-0.433 0.062,-0.631l-2.829,-4.241c-0.083,-0.125 -0.218,-0.205 -0.367,-0.221c-0.149,-0.009 -0.297,0.04 -0.403,0.145l-1.768,1.767c-1.982,1.982 -0.585,6.486 3.182,10.253c2.518,2.518 5.511,4.081 7.811,4.081c1.01,0 1.854,-0.311 2.444,-0.899l1.767,-1.768c0.106,-0.105 0.159,-0.254 0.144,-0.402c-0.015,-0.149 -0.096,-0.284 -0.22,-0.367l-4.244,-2.829Zm1.844,4.66c-0.402,0.402 -0.986,0.605 -1.736,0.605c-2.013,0 -4.802,-1.486 -7.104,-3.788c-3.258,-3.258 -4.715,-7.306 -3.182,-8.838l1.337,-1.337l2.263,3.394l-0.418,0.418c-0.13,0.131 -0.178,0.321 -0.125,0.498c0.026,0.087 0.665,2.163 2.246,3.744c1.581,1.581 3.657,2.22 3.745,2.246c0.177,0.055 0.368,0.005 0.498,-0.125l0.417,-0.417l3.395,2.263l-1.336,1.337Z"></path><path fill="#000" d="M17.5,10c0,0.276 0.224,0.5 0.5,0.5c0.276,0 0.5,-0.224 0.5,-0.5c0,-1.93 -1.57,-3.5 -3.5,-3.5c-0.276,0 -0.5,0.224 -0.5,0.5c0,0.276 0.224,0.5 0.5,0.5c1.378,0 2.5,1.121 2.5,2.5Z"></path><path fill="#000" d="M15,2.5c-0.276,0 -0.5,0.224 -0.5,0.5c0,0.276 0.224,0.5 0.5,0.5c3.584,0 6.5,2.916 6.5,6.5c0,0.276 0.224,0.5 0.5,0.5c0.276,0 0.5,-0.224 0.5,-0.5c0,-4.136 -3.364,-7.5 -7.5,-7.5Z"></path></g></svg>