<?xml version="1.0" encoding="UTF-8"?>
<!DOCTYPE svg PUBLIC "-//W3C//DTD SVG 1.1//EN" "http://www.w3.org/Graphics/SVG/1.1/DTD/svg11.dtd">
<!-- Creator: CorelDRAW -->
<svg xmlns="http://www.w3.org/2000/svg" xml:space="preserve" width="1.70666in" height="1.70666in" version="1.1" style="shape-rendering:geometricPrecision; text-rendering:geometricPrecision; image-rendering:optimizeQuality; fill-rule:evenodd; clip-rule:evenodd"
viewBox="0 0 1707 1707"
 xmlns:xlink="http://www.w3.org/1999/xlink">
 <defs>
  <style type="text/css">
   <![CDATA[
    .fil0 {fill:black}
   ]]>
  </style>
 </defs>
 <g id="Layer_x0020_1">
  <metadata id="CorelCorpID_0Corel-Layer"/>
  <g id="_599664824">
   <g>
    <path class="fil0" d="M1262 1707l-816 0c-68,0 -123,-55 -123,-123l0 -1461c0,-68 55,-124 123,-124l816 0c68,0 123,56 123,124l0 1461c0,68 -55,123 -123,123zm-816 -1659c-41,0 -75,33 -75,75l0 1461c0,41 35,75 75,75l816 0c41,0 75,-34 75,-75l0 -1461c0,-42 -34,-75 -75,-75l-816 0z"/>
   </g>
   <g>
    <path class="fil0" d="M1360 1423l-1014 0c-13,0 -25,-11 -25,-25 0,-14 12,-25 25,-25l1014 0c14,0 25,11 25,25 0,14 -11,25 -25,25z"/>
   </g>
   <g>
    <path class="fil0" d="M980 145l-252 0c-40,0 -73,-37 -73,-82l0 -40c0,-14 11,-24 25,-24 14,0 25,11 25,24l0 40c0,18 11,34 25,34l251 0c14,0 25,-16 25,-34l0 -40c0,-14 11,-24 25,-24 14,0 25,11 25,24l0 40c-3,46 -36,82 -76,82z"/>
   </g>
   <g>
    <path class="fil0" d="M945 1564l-181 0c-13,0 -25,-11 -25,-25 0,-14 12,-25 25,-25l181 0c14,0 25,11 25,25 0,14 -11,25 -25,25z"/>
   </g>
  </g>
 </g>
</svg>
