<svg id="Layer_1" data-name="Layer 1" xmlns="http://www.w3.org/2000/svg" viewBox="0 0 512 512"><path d="M373.706,83.061a5,5,0,0,0,0,10,58.8,58.8,0,0,1,58.731,58.731,5,5,0,1,0,10,0A68.809,68.809,0,0,0,373.706,83.061Z"/><path d="M496,251.861H430.91a5,5,0,0,0-4.57,2.972l-18.283,41.188-7.123-16.648,53-63.775c23.7-28.52,30.511-67.32,17.77-101.257A102.263,102.263,0,0,0,448.1,77.752l-.076-.074a103.218,103.218,0,0,0-145.7.023l-57.8,56.171L186.777,77.751A103.154,103.154,0,0,0,17.336,114.342C4.6,148.28,11.405,187.079,35.106,215.6L240.429,462.646a5,5,0,0,0,3.618,1.8,4.408,4.408,0,0,0,.474,0q.125.006.249.006c.077,0,.154,0,.232-.006a5,5,0,0,0,3.613-1.8L393.754,288.013l9.622,22.488a5,5,0,0,0,4.563,3.034h.034a5,5,0,0,0,4.57-2.972l21.618-48.7H496a5,5,0,0,0,0-10ZM390.46,254.9a5,5,0,0,0-4.6-3.034h-27.4l-28.972-57.534a5,5,0,0,0-9.187.6l-19.85,56.931H272.223a5,5,0,0,0-4.711,3.325l-26.946,75.759L189.9,183.219a5,5,0,0,0-9.339-.316l-30.287,72.02a5,5,0,0,0,9.218,3.877l25.2-59.932,51.06,148.86a5,5,0,0,0,4.7,3.378h.028a5,5,0,0,0,4.711-3.324l30.56-85.921h28.255a5,5,0,0,0,4.722-3.354l17.136-49.149,25.053,49.752a5,5,0,0,0,4.466,2.751h27.181l6.77,15.823L244.521,451.926,42.8,209.207c-21.412-25.764-27.581-60.767-16.1-91.351A93.138,93.138,0,0,1,179.758,84.873l61.279,59.557a5,5,0,0,0,6.969,0l61.331-59.608a93.223,93.223,0,0,1,131.686,0l.071.07a92.327,92.327,0,0,1,21.253,32.964c11.481,30.582,5.312,65.586-16.1,91.351l-49.731,59.838Z"/></svg>