<?xml version="1.0" encoding="UTF-8"?>
<!DOCTYPE svg PUBLIC "-//W3C//DTD SVG 1.1//EN" "http://www.w3.org/Graphics/SVG/1.1/DTD/svg11.dtd">
<!-- Creator: CorelDRAW -->
<svg xmlns="http://www.w3.org/2000/svg" xml:space="preserve" width="1.70666in" height="1.70666in" version="1.1" style="shape-rendering:geometricPrecision; text-rendering:geometricPrecision; image-rendering:optimizeQuality; fill-rule:evenodd; clip-rule:evenodd"
viewBox="0 0 1707 1707"
 xmlns:xlink="http://www.w3.org/1999/xlink">
 <defs>
  <style type="text/css">
   <![CDATA[
    .fil0 {fill:black}
   ]]>
  </style>
 </defs>
 <g id="Layer_x0020_1">
  <metadata id="CorelCorpID_0Corel-Layer"/>
  <g id="_331322776">
   <g>
    <g>
     <g>
      <path class="fil0" d="M762 1545c-4,0 -7,-1 -11,-3 -52,-26 -79,-59 -83,-101 -6,-50 26,-95 48,-122 -55,-43 -83,-90 -82,-138 0,-55 36,-97 63,-121 -97,-65 -146,-133 -143,-204 4,-116 147,-188 152,-191 13,-6 27,-2 32,11 6,12 2,26 -11,32 -1,1 -122,62 -126,149 -3,59 47,118 148,179 7,5 11,13 11,21 0,8 -4,17 -11,21 0,0 -68,44 -68,104 0,39 28,78 85,115 7,4 10,11 11,19 0,7 -3,16 -8,20 -17,14 -58,59 -53,101 3,24 22,46 58,64 13,5 17,21 11,33 -7,7 -15,11 -23,11z"/>
     </g>
     <g>
      <path class="fil0" d="M946 1545c-8,0 -16,-4 -22,-12 -5,-13 -1,-27 11,-34 35,-18 54,-40 57,-63 4,-41 -37,-88 -54,-102 -6,-5 -8,-12 -8,-19 0,-7 4,-14 11,-19 57,-38 84,-78 84,-115 0,-59 -66,-103 -68,-104 -7,-5 -11,-13 -11,-21 0,-9 4,-17 11,-21 102,-61 151,-121 149,-179 -3,-73 -92,-133 -126,-150 -13,-5 -17,-20 -12,-32 6,-12 21,-16 32,-11 6,3 149,75 153,192 3,70 -46,138 -143,204 26,25 61,66 61,120 0,50 -28,96 -83,139 23,26 55,72 50,122 -4,41 -34,75 -83,101 -2,3 -5,4 -9,4z"/>
     </g>
    </g>
    <g>
     <path class="fil0" d="M853 540c-166,0 -377,-42 -425,-159 -5,-10 -2,-21 7,-28 16,-14 165,-140 266,-126 28,4 50,19 65,43 0,1 1,1 1,2l45 95 83 0 44 -95c0,-1 2,-1 2,-2 15,-24 37,-39 66,-43 101,-14 248,111 265,126 8,7 11,18 7,28 -47,116 -257,158 -422,159 -2,0 -2,0 -4,0zm-371 -162c44,68 194,113 374,113 179,0 326,-45 369,-113 -50,-40 -151,-111 -212,-103 -14,2 -24,8 -31,20l-50 106c-4,9 -12,14 -22,14l-114 0c-9,0 -18,-5 -22,-14l-50 -106c-7,-12 -16,-17 -30,-20 -60,-8 -162,63 -212,103z"/>
    </g>
    <g>
     <path class="fil0" d="M853 1706c-14,0 -25,-11 -25,-25l0 -1495c0,-13 11,-25 25,-25 14,0 25,12 25,25l0 1495c0,14 -11,25 -25,25z"/>
    </g>
    <g>
     <path class="fil0" d="M853 211c-57,0 -104,-47 -104,-105 0,-58 47,-105 104,-105 59,0 106,47 106,105 0,58 -47,105 -106,105zm0 -162c-30,0 -55,25 -55,57 0,30 25,57 55,57 32,0 57,-25 57,-57 0,-32 -25,-57 -57,-57z"/>
    </g>
   </g>
  </g>
 </g>
</svg>
