<?xml version="1.0" standalone="no"?>
<!DOCTYPE svg PUBLIC "-//W3C//DTD SVG 20010904//EN"
 "http://www.w3.org/TR/2001/REC-SVG-20010904/DTD/svg10.dtd">
<svg version="1.0" xmlns="http://www.w3.org/2000/svg"
 width="611.000000pt" height="639.000000pt" viewBox="0 0 611.000000 639.000000"
 preserveAspectRatio="xMidYMid meet">

<g transform="translate(0.000000,639.000000) scale(0.100000,-0.100000)"
fill="#000000" stroke="none">
<path d="M2830 6104 c-535 -47 -1027 -236 -1460 -562 -129 -97 -382 -344 -484
-472 -175 -221 -359 -552 -446 -805 -292 -845 -176 -1747 318 -2480 104 -155
167 -231 311 -379 385 -393 836 -648 1361 -770 742 -173 1539 -25 2168 401
570 386 980 974 1142 1637 60 243 75 374 74 666 0 283 -9 378 -60 610 -160
728 -634 1382 -1280 1768 -320 191 -644 306 -1039 367 -96 15 -503 28 -605 19z
m490 -234 c354 -43 618 -124 920 -281 238 -125 432 -271 635 -480 194 -200
326 -384 447 -624 186 -369 268 -720 268 -1145 0 -268 -25 -463 -90 -693 -255
-909 -1012 -1615 -1930 -1802 -202 -41 -296 -49 -525 -49 -309 1 -532 36 -803
128 -373 126 -672 310 -961 591 -439 427 -701 971 -762 1580 -15 148 -6 481
16 619 70 439 226 811 486 1156 413 549 1029 907 1712 995 125 16 471 19 587
5z"/>
<path d="M3804 4970 c-12 -5 -88 -73 -170 -152 -82 -79 -255 -245 -384 -368
-1002 -958 -1099 -1052 -1105 -1081 -16 -70 -33 -52 808 -857 440 -422 814
-777 831 -789 47 -35 100 -31 142 11 42 42 46 96 12 144 -13 17 -234 233 -493
480 -936 892 -1020 973 -1020 981 0 7 278 274 1205 1159 346 330 330 313 330
364 0 50 -19 82 -60 103 -32 17 -64 18 -96 5z"/>
</g>
</svg>
