<?xml version="1.0" standalone="no"?>
<!DOCTYPE svg PUBLIC "-//W3C//DTD SVG 20010904//EN"
 "http://www.w3.org/TR/2001/REC-SVG-20010904/DTD/svg10.dtd">
<svg version="1.0" xmlns="http://www.w3.org/2000/svg"
 width="640.000000pt" height="640.000000pt" viewBox="0 0 640.000000 640.000000"
 preserveAspectRatio="xMidYMid meet">

<g transform="translate(0.000000,640.000000) scale(0.100000,-0.100000)"
fill="#000000" stroke="none">
<path d="M2975 6385 c-241 -20 -386 -46 -615 -106 -772 -206 -1470 -733 -1888
-1425 -117 -194 -205 -381 -283 -598 -135 -378 -204 -848 -179 -1217 55 -800
329 -1447 862 -2031 141 -154 389 -364 568 -479 139 -91 183 -116 318 -185
243 -123 538 -227 807 -283 393 -81 846 -83 1250 -6 808 155 1534 628 2012
1311 255 364 433 783 518 1217 77 398 75 861 -6 1251 -173 829 -653 1544
-1355 2016 -479 323 -1001 497 -1614 540 -172 12 -200 11 -395 -5z m496 -355
c996 -99 1840 -679 2285 -1570 192 -385 280 -746 291 -1195 4 -179 2 -262 -11
-375 -78 -677 -363 -1263 -842 -1731 -444 -432 -977 -695 -1594 -784 -154 -23
-482 -31 -650 -16 -151 13 -434 67 -555 106 -44 14 -83 25 -88 25 -4 0 -63 22
-130 49 -278 111 -523 251 -737 421 -573 457 -941 1092 -1051 1813 -26 171
-36 496 -20 677 31 348 131 700 288 1015 74 147 92 178 194 330 479 710 1244
1157 2119 1239 85 8 407 5 501 -4z"/>
<path d="M1620 4186 c0 -3 26 -19 58 -37 31 -17 109 -62 172 -99 136 -79 371
-215 635 -367 105 -60 308 -178 452 -261 144 -84 264 -152 268 -152 6 0 260
145 525 300 63 36 135 78 160 92 25 14 128 73 230 133 429 250 636 369 660
382 21 11 -236 13 -1567 13 -876 0 -1593 -2 -1593 -4z"/>
<path d="M1439 4136 c-2 -2 -3 -420 -1 -928 l2 -923 585 585 c322 322 585 588
585 591 0 4 -123 78 -272 164 -150 87 -298 173 -328 190 -142 83 -561 325
-564 325 -1 0 -5 -2 -7 -4z"/>
<path d="M4510 3879 c-245 -142 -510 -296 -588 -341 l-144 -83 239 -235 c455
-448 944 -925 954 -928 5 -2 9 351 9 922 0 735 -3 926 -12 925 -7 0 -213 -117
-458 -260z"/>
<path d="M2124 2799 l-599 -599 1680 0 1680 1 -90 85 c-49 47 -180 174 -290
282 -249 245 -666 653 -765 749 l-75 73 -225 -130 c-123 -72 -229 -130 -235
-130 -5 0 -100 52 -210 116 -110 64 -216 124 -236 134 l-35 19 -600 -600z"/>
</g>
</svg>
