<?xml version="1.0" standalone="no"?>
<!DOCTYPE svg PUBLIC "-//W3C//DTD SVG 20010904//EN"
 "http://www.w3.org/TR/2001/REC-SVG-20010904/DTD/svg10.dtd">
<svg version="1.0" xmlns="http://www.w3.org/2000/svg"
 width="640.000000pt" height="640.000000pt" viewBox="0 0 640.000000 640.000000"
 preserveAspectRatio="xMidYMid meet">

<g transform="translate(0.000000,640.000000) scale(0.100000,-0.100000)"
fill="#000000" stroke="none">
<path d="M2950 6389 c-763 -62 -1469 -389 -2010 -929 -976 -976 -1216 -2460
-599 -3693 307 -611 815 -1119 1429 -1427 897 -450 1963 -450 2860 0 836 419
1452 1189 1675 2093 164 666 108 1383 -157 2007 -540 1271 -1833 2059 -3198
1949z m615 -374 c625 -83 1194 -364 1640 -810 702 -702 985 -1705 754 -2670
-165 -686 -582 -1285 -1174 -1687 -737 -501 -1667 -622 -2518 -328 -935 322
-1650 1139 -1846 2107 -45 223 -55 326 -55 573 0 245 10 348 54 570 178 892
809 1670 1650 2034 296 127 587 198 950 230 92 8 429 -4 545 -19z"/>
<path d="M2350 5232 c0 -36 307 -1186 317 -1189 9 -3 189 124 235 166 7 6 -20
118 -158 656 -47 182 -89 333 -93 338 -6 6 -254 47 -288 47 -7 0 -13 -8 -13
-18z"/>
<path d="M2185 5159 c-231 -187 -361 -317 -464 -464 -53 -76 -68 -129 -81
-287 -42 -514 167 -1286 478 -1770 44 -69 90 -145 102 -169 79 -157 275 -404
495 -625 170 -171 267 -249 525 -419 218 -144 301 -190 416 -230 178 -62 240
-59 489 22 253 82 426 158 424 186 -1 14 -43 52 -464 421 -341 299 -420 366
-427 366 -3 0 -16 -43 -28 -97 -28 -119 -51 -148 -112 -140 -22 3 -51 16 -65
29 -48 45 -250 364 -541 853 -36 61 -97 158 -136 216 -151 227 -419 675 -487
817 -58 119 -60 141 -15 180 20 18 44 32 52 32 8 0 56 -12 105 -26 50 -14 93
-23 96 -20 4 3 -42 196 -101 428 -140 553 -189 731 -201 734 -5 2 -32 -15 -60
-37z"/>
<path d="M3859 2368 c-67 -35 -124 -68 -126 -74 -2 -6 76 -80 174 -165 283
-246 745 -639 752 -639 6 0 93 211 106 257 5 18 -43 64 -342 324 -191 166
-363 315 -381 331 -18 15 -39 28 -46 28 -8 0 -69 -28 -137 -62z"/>
</g>
</svg>
