<?xml version="1.0" standalone="no"?>
<!DOCTYPE svg PUBLIC "-//W3C//DTD SVG 20010904//EN"
 "http://www.w3.org/TR/2001/REC-SVG-20010904/DTD/svg10.dtd">
<svg version="1.0" xmlns="http://www.w3.org/2000/svg"
 width="512.000000pt" height="512.000000pt" viewBox="0 0 512.000000 512.000000"
 preserveAspectRatio="xMidYMid meet">

<g transform="translate(0.000000,512.000000) scale(0.100000,-0.100000)"
fill="#000000" stroke="none">
<path d="M2325 5109 c-771 -72 -1472 -494 -1907 -1149 -89 -134 -213 -382
-267 -535 -162 -458 -193 -943 -91 -1420 49 -228 155 -501 277 -713 36 -63 63
-121 60 -130 -2 -9 -93 -246 -201 -526 -108 -280 -196 -522 -196 -538 0 -41
57 -98 97 -98 16 0 273 87 570 193 l541 194 58 -35 c275 -164 628 -284 979
-334 118 -17 512 -17 630 0 302 43 550 119 810 246 511 252 912 650 1164 1157
195 391 283 793 268 1224 -24 672 -295 1281 -778 1750 -427 414 -965 661
-1559 714 -131 12 -323 12 -455 0z m545 -225 c305 -39 648 -160 910 -321 534
-329 919 -860 1063 -1468 79 -332 81 -712 6 -1048 -43 -194 -134 -436 -230
-610 -590 -1068 -1872 -1510 -2989 -1030 -110 47 -161 74 -296 155 -45 26 -93
48 -108 48 -14 0 -229 -72 -477 -161 -248 -89 -452 -159 -453 -157 -2 1 73
199 166 438 131 339 167 443 164 470 -2 20 -28 73 -61 125 -358 565 -448 1300
-239 1948 88 271 223 524 400 749 72 91 276 296 369 369 508 402 1132 575
1775 493z"/>
<path d="M1700 3817 c-265 -90 -460 -428 -411 -711 40 -230 232 -609 468 -926
215 -288 547 -549 948 -745 219 -107 372 -155 500 -155 267 0 549 200 619 439
23 78 23 322 0 360 -13 21 -77 58 -273 155 -237 117 -260 127 -311 126 -101
-1 -220 -58 -331 -159 l-60 -53 -94 45 c-249 121 -428 295 -549 535 -62 124
-62 114 -3 182 102 116 156 230 157 330 1 51 -9 74 -126 311 -97 196 -134 260
-155 273 -22 13 -56 16 -171 16 -121 0 -153 -4 -208 -23z m355 -377 c52 -104
95 -196 95 -203 0 -36 -68 -143 -140 -221 -44 -47 -82 -97 -86 -112 -14 -57
74 -263 183 -429 86 -130 237 -282 363 -365 170 -112 377 -201 434 -186 15 4
64 42 111 84 79 75 184 142 219 142 9 0 102 -43 207 -96 l191 -95 -4 -92 c-3
-71 -10 -102 -27 -137 -72 -139 -286 -254 -436 -234 -271 35 -845 372 -1099
645 -252 271 -527 759 -566 1004 -29 183 100 411 267 471 21 7 73 13 115 14
l78 0 95 -190z"/>
</g>
</svg>
